<svg xmlns="http://www.w3.org/2000/svg" width="405.8639221191406" height="174"><g data-id="setup_block" class="blocklyDraggable blocklySelected" transform="translate(2,2)"><path class="blocklyPathDark" transform="translate(1,1)" fill="#cca038" d=" m 0,0  m 0,8 a 8 8 0 0,1 8,-8  h 192.95053100585938  v 5  H 200.95053100585938  V 5  H 200.95053100585938  V 23  H 200.95053100585938  V 33  H 200.95053100585938  V 53  H 200.95053100585938  V 57  H 50  l -6,4  -3,0  -6,-4  h -7 a 8 8 0 0,0 -8,8  v 82 a 8 8 0 0,0 8,8  H 200.95053100585938  H 200.95053100585938  V 155  V 165  h -192.95053100585938 a 8 8 0 0,1 -8,-8 z&#10;"/><path class="blocklyPath" stroke="none" fill="#ffc846" d=" m 0,0  m 0,8 a 8 8 0 0,1 8,-8  h 192.95053100585938  v 5  H 200.95053100585938  V 5  H 200.95053100585938  V 23  H 200.95053100585938  V 33  H 200.95053100585938  V 53  H 200.95053100585938  V 57  H 50  l -6,4  -3,0  -6,-4  h -7 a 8 8 0 0,0 -8,8  v 82 a 8 8 0 0,0 8,8  H 200.95053100585938  H 200.95053100585938  V 155  V 165  h -192.95053100585938 a 8 8 0 0,1 -8,-8 z&#10;"/><g transform="translate(10,5)"><text class="blocklyText" fill="#fff" style="font: normal 11pt sans-serif;" x="0" y="14">Setup              </text></g><g transform="translate(10,33)"><text class="blocklyText" fill="#fff" style="font: normal 11pt sans-serif;" x="0" y="14">Begin initialization</text></g><g class="blocklyEditableText" transform="translate(132.3513946533203,33)"><rect rx="10" ry="10" x="0" y="0" height="20" class="blocklyFieldSwitchInner blocklyFieldSwitchChecked" fill-opacity=".9" width="63.59913635253906" fill="#8253f9"/><text class="blocklyFieldSwitchLabel" y="16" fill="#fff" style="font: 11pt sans-serif; display: none;" x="-63.59913635253906">False</text><circle cy="10" r="7" class="blocklyFieldSwitchHandle" fill="#fff" cx="10"/><text class="blocklyFieldSwitchLabel" y="16" fill="#fff" style="font: 11pt sans-serif; display: block;" x="24">True</text></g><g data-id="RM2a*4Zbl~0v}~u2Jwbm" class="blocklyDraggable" transform="translate(21,58)" style="display: block;"><path class="blocklyPathDark" transform="translate(1,1)" fill="#44a43d" d=" m 0,0  m 0,8 a 8 8 0 0,1 8,-8  h 7  l 6,4  3,0  6,-4  h 205.96267700195312  v 5  H 235.96267700195312  V 5  H 235.96267700195312  V 23  H 235.96267700195312  V 23  V 27  h -206.46267700195312  l -6,4  -3,0  -6,-4  h -14.5  H 0 z&#10;"/><path class="blocklyPath" stroke="none" fill="#55cd4c" d=" m 0,0  m 0,8 a 8 8 0 0,1 8,-8  h 7  l 6,4  3,0  6,-4  h 205.96267700195312  v 5  H 235.96267700195312  V 5  H 235.96267700195312  V 23  H 235.96267700195312  V 23  V 27  h -206.46267700195312  l -6,4  -3,0  -6,-4  h -14.5  H 0 z&#10;"/><g transform="translate(10,5)"><text class="blocklyText" fill="#fff" style="font: normal 11pt sans-serif;" x="0" y="14">Init built-in hardware at beginning</text></g><g data-id="ZoKy`QU~5rAXY;:}_ttp" class="blocklyDraggable" transform="translate(0,28)" style="display: block;"><path class="blocklyPathDark" transform="translate(1,1)" fill="#2443a6" d=" m 0,0  h 15  l 6,4  3,0  6,-4  h 345.8639373779297  v 5  H 375.8639373779297  V 5  H 375.8639373779297  V 34  H 375.8639373779297  V 34  V 38  h -346.3639373779297  l -6,4  -3,0  -6,-4  h -14.5  H 0 z&#10; M 137.2884521484375,5  v 5  c 0,10  -8,-8  -8,7.5  s 8,-2.5  8,7.5  v 9  h 38.306365966796875  v -29 z M 231.73797607421875,5  v 5  c 0,10  -8,-8  -8,7.5  s 8,-2.5  8,7.5  v 9  h 38.306365966796875  v -29 z"/><path class="blocklyPath" stroke="none" fill="#2d54cf" d=" m 0,0  h 15  l 6,4  3,0  6,-4  h 345.8639373779297  v 5  H 375.8639373779297  V 5  H 375.8639373779297  V 34  H 375.8639373779297  V 34  V 38  h -346.3639373779297  l -6,4  -3,0  -6,-4  h -14.5  H 0 z&#10; M 137.2884521484375,5  v 5  c 0,10  -8,-8  -8,7.5  s 8,-2.5  8,7.5  v 9  h 38.306365966796875  v -29 z M 231.73797607421875,5  v 5  c 0,10  -8,-8  -8,7.5  s 8,-2.5  8,7.5  v 9  h 38.306365966796875  v -29 z"/><g data-id="f0,%LzS~zrOslQ?Mfhv{" class="" style="display: block;" transform="translate(130.2884521484374,6)"><path class="blocklyPathDark" transform="translate(1,1)" fill="#9acef9" d=" m 8,0  h 36.306365966796875  v 5  H 44.306365966796875  V 5  H 44.306365966796875  V 23  H 44.306365966796875  V 23  V 27  h -36.306365966796875  H 8  V 20  c 0,-10  -8,8  -8,-7.5  s 8,2.5  8,-7.5 z&#10;"/><path class="blocklyPath" stroke="none" fill="#9acef9" d=" m 8,0  h 36.306365966796875  v 5  H 44.306365966796875  V 5  H 44.306365966796875  V 23  H 44.306365966796875  V 23  V 27  h -36.306365966796875  H 8  V 20  c 0,-10  -8,8  -8,-7.5  s 8,2.5  8,-7.5 z&#10;"/><g class="blocklyEditableText" transform="translate(13,5)" style="cursor: text;"><rect rx="4" ry="4" x="0" y="0" height="18" width="26.306365966796875" class="blocklyFieldRect" fill="#fff" fill-opacity=".6" stroke="none"/><text class="blocklyFieldText" fill="#000" style="font: normal 11pt sans-serif;" x="5" y="14">33</text></g></g><g data-id="~/c|Y-mzdX/|-JY=y*s^" class="" style="display: block;" transform="translate(224.73797607421864,6)"><path class="blocklyPathDark" transform="translate(1,1)" fill="#9acef9" d=" m 8,0  h 36.306365966796875  v 5  H 44.306365966796875  V 5  H 44.306365966796875  V 23  H 44.306365966796875  V 23  V 27  h -36.306365966796875  H 8  V 20  c 0,-10  -8,8  -8,-7.5  s 8,2.5  8,-7.5 z&#10;"/><path class="blocklyPath" stroke="none" fill="#9acef9" d=" m 8,0  h 36.306365966796875  v 5  H 44.306365966796875  V 5  H 44.306365966796875  V 23  H 44.306365966796875  V 23  V 27  h -36.306365966796875  H 8  V 20  c 0,-10  -8,8  -8,-7.5  s 8,2.5  8,-7.5 z&#10;"/><g class="blocklyEditableText" transform="translate(13,5)" style="cursor: text;"><rect rx="4" ry="4" x="0" y="0" height="18" width="26.306365966796875" class="blocklyFieldRect" fill="#fff" fill-opacity=".6" stroke="none"/><text class="blocklyFieldText" fill="#000" style="font: normal 11pt sans-serif;" x="5" y="14">32</text></g></g><g transform="translate(10,10)"><text class="blocklyText" fill="#fff" style="font: normal 11pt sans-serif;" x="0" y="14">Init</text></g><g class="blocklyEditableText" transform="translate(34.556182861328125,10)" style="cursor: default;"><rect rx="4" ry="4" x="0" y="0" height="18" width="53.214019775390625" class="blocklyFieldRect blocklyDropdownRect" fill="#fff" fill-opacity=".6" stroke="none"/><text class="blocklyFieldText blocklyDropdownText" fill="#000" style="font: normal 11pt sans-serif;" text-anchor="start" x="5" y="14">i2c0<tspan style="fill: rgb(45, 84, 207);"> ▾</tspan></text><image style="display: none;"/></g><g transform="translate(92.77020263671875,10)"><text class="blocklyText" fill="#fff" style="font: normal 11pt sans-serif;" x="0" y="14">SCL</text></g><g transform="translate(185.59481811523438,10)"><text class="blocklyText" fill="#fff" style="font: normal 11pt sans-serif;" x="0" y="14">SDA</text></g><g transform="translate(280.0443420410156,10)"><text class="blocklyText" fill="#fff" style="font: normal 11pt sans-serif;" x="0" y="14">freq</text></g><g class="blocklyEditableText" transform="translate(310.30560302734375,10)" style="cursor: default;"><rect rx="4" ry="4" x="0" y="0" height="18" width="60.55833435058594" class="blocklyFieldRect blocklyDropdownRect" fill="#fff" fill-opacity=".6" stroke="none"/><text class="blocklyFieldText blocklyDropdownText" fill="#000" style="font: normal 11pt sans-serif;" text-anchor="start" x="5" y="14">100K<tspan style="fill: rgb(45, 84, 207);"> ▾</tspan></text><image style="display: none;"/></g><g data-id="[]ot2qKXqSshoql~IvP1" class="blocklyDraggable" style="display: block;" transform="translate(0,39)"><path class="blocklyPathDark" transform="translate(1,1)" fill="#c34443" d=" m 0,0  h 15  l 6,4  3,0  6,-4  h 83.9727783203125  v 5  H 113.9727783203125  V 5  H 113.9727783203125  V 23  H 113.9727783203125  V 23  V 27  h -84.4727783203125  l -6,4  -3,0  -6,-4  h -6.5 a 8 8 0 0,1 -8,-8 z&#10;"/><path class="blocklyPath" stroke="none" fill="#f45554" d=" m 0,0  h 15  l 6,4  3,0  6,-4  h 83.9727783203125  v 5  H 113.9727783203125  V 5  H 113.9727783203125  V 23  H 113.9727783203125  V 23  V 27  h -84.4727783203125  l -6,4  -3,0  -6,-4  h -6.5 a 8 8 0 0,1 -8,-8 z&#10;"/><g transform="translate(10,5)"><text class="blocklyText" fill="#fff" style="font: normal 11pt sans-serif;" x="0" y="14">Init</text></g><g class="blocklyEditableText" transform="translate(34.556182861328125,5)" style="cursor: default;"><rect rx="4" ry="4" x="0" y="0" height="18" width="74.41659545898438" class="blocklyFieldRect blocklyDropdownRect" fill="#fff" fill-opacity=".6" stroke="none"/><text class="blocklyFieldText blocklyDropdownText" fill="#000" style="font: normal 11pt sans-serif;" text-anchor="start" x="5" y="14">env4_0<tspan style="fill: rgb(244, 85, 84);"> ▾</tspan></text><image style="display: none;"/></g></g></g></g></g></svg>